<svg width="32" height="39" viewBox="0 0 32 39" fill="none" xmlns="http://www.w3.org/2000/svg">
<path d="M27.3138 27.3136L16 38.6274L4.68623 27.3136C2.44861 25.076 0.924776 22.2251 0.307428 19.1214C-0.309919 16.0177 0.00694549 12.8006 1.21795 9.87702C2.42896 6.95341 4.47972 4.45456 7.1109 2.69647C9.74208 0.938378 12.8355 0 16 0C19.1645 0 22.2579 0.938378 24.8891 2.69647C27.5203 4.45456 29.571 6.95341 30.782 9.87702C31.9931 12.8006 32.3099 16.0177 31.6926 19.1214C31.0752 22.2251 29.5514 25.076 27.3138 27.3136Z" fill="#028EFF"/>
<path d="M22.75 20.5H11.5C11.3011 20.5 11.1103 20.579 10.9697 20.7197C10.829 20.8603 10.75 21.0511 10.75 21.25C10.75 21.4489 10.829 21.6397 10.9697 21.7803C11.1103 21.921 11.3011 22 11.5 22H22.75V23.5H11.5C10.9033 23.5 10.331 23.2629 9.90901 22.841C9.48705 22.419 9.25 21.8467 9.25 21.25V10C9.25 9.60218 9.40804 9.22064 9.68934 8.93934C9.97064 8.65804 10.3522 8.5 10.75 8.5H22.75V20.5ZM19 13.75V12.25H13V13.75H19Z" fill="white"/>
</svg>
