<svg width="32" height="39" viewBox="0 0 32 39" fill="none" xmlns="http://www.w3.org/2000/svg">
<path d="M27.3138 27.3136L16 38.6274L4.68623 27.3136C2.44861 25.076 0.924776 22.2251 0.307428 19.1214C-0.309919 16.0177 0.00694549 12.8006 1.21795 9.87702C2.42896 6.95341 4.47972 4.45456 7.1109 2.69647C9.74208 0.938378 12.8355 0 16 0C19.1645 0 22.2579 0.938378 24.8891 2.69647C27.5203 4.45456 29.571 6.95341 30.782 9.87702C31.9931 12.8006 32.3099 16.0177 31.6926 19.1214C31.0752 22.2251 29.5514 25.076 27.3138 27.3136Z" fill="#028EFF"/>
<path d="M22.75 22H24.25V23.5H7.75V22H9.25V9.25C9.25 9.05109 9.32902 8.86032 9.46967 8.71967C9.61032 8.57902 9.80109 8.5 10 8.5H22C22.1989 8.5 22.3897 8.57902 22.5303 8.71967C22.671 8.86032 22.75 9.05109 22.75 9.25V22ZM15.25 13H13.75V14.5H15.25V16H16.75V14.5H18.25V13H16.75V11.5H15.25V13ZM17.5 22H19V17.5H13V22H14.5V19H17.5V22Z" fill="white"/>
</svg>
